<svg width="234" height="101" xmlns="http://www.w3.org/2000/svg" xmlns:xlink="http://www.w3.org/1999/xlink" xml:space="preserve" overflow="hidden"><defs><clipPath id="clip0"><rect x="523" y="310" width="234" height="101"/></clipPath></defs><g clip-path="url(#clip0)" transform="translate(-523 -310)"><path d="M239.936 144.751C240.267 150.81 240.597 157.55 240.828 163.65 240.858 164.06 240.828 164.741 240.928 165.122 241.959 168.958 246.136 170.6 249.891 170.44 259.877 170.18 269.892 170.14 279.867 170.35 280.698 170.35 282.02 170.44 282.862 170.36 285.586 170.25 288.51 168.958 289.872 166.604 290.353 165.763 290.473 164.862 290.604 163.9 290.964 160.805 291.124 157.661 291.295 154.526 291.295 154.526 291.865 141.927 291.865 141.927 292.286 148.236 292.566 154.546 292.496 160.876 292.396 163.059 292.536 165.392 291.675 167.466 289.782 171.402 285.496 173.094 281.379 173.074 276.652 173.194 271.925 173.184 267.198 173.204 261.459 173.164 255.61 173.094 249.871 172.914 247.037 172.764 243.962 172.063 241.899 169.969 240.477 168.527 239.375 166.554 239.485 164.471 239.485 164.471 239.496 163.68 239.496 163.68 239.606 157.56 239.706 150.83 239.916 144.751L239.916 144.751Z" fill="#9CD0E1" transform="matrix(1 0 0 1.00023 423.787 215.835)"/><path d="M249.791 171.732 281.75 171.732 281.75 177.781 249.791 177.781Z" stroke="#9CD0E1" stroke-width="3.00459" stroke-miterlimit="10" fill="none" transform="matrix(1 0 0 1.00023 423.787 215.835)"/><path d="M238.173 182.609C235.67 183.37 233.326 183.59 230.892 184.061 229.25 184.351 228.699 184.672 227.597 185.894 225.935 187.716 224.543 189.659 222.76 191.512 223.281 187.917 224.483 184.321 227.527 182.028 231.013 180.365 234.818 181.116 238.173 182.609L238.173 182.609Z" fill="#9CD0E1" transform="matrix(1 0 0 1.00023 423.787 215.835)"/><path d="M294.349 182.378C297.544 180.816 301.61 180.035 304.835 182.058 307.599 184.492 308.681 188.007 309.052 191.522 307.379 189.639 306.067 187.696 304.505 185.844 303.503 184.662 302.982 184.191 301.42 183.851 299.066 183.33 296.803 183.119 294.349 182.368L294.349 182.368Z" fill="#9CD0E1" transform="matrix(1 0 0 1.00023 423.787 215.835)"/><path d="M236.311 191.532C236.841 187.797 237.482 184.051 238.143 180.325 238.143 180.325 238.254 179.704 238.254 179.704 238.404 178.372 239.516 177.13 240.918 176.92 242.36 176.78 244.583 176.74 246.066 176.67 261.149 176.119 276.242 176.149 291.315 176.88 292.787 176.9 294.109 178.122 294.209 179.564 294.209 179.564 294.259 180.195 294.259 180.195 294.58 183.961 294.89 187.747 295.09 191.512 294.229 187.616 293.478 183.71 292.737 179.804 292.637 179.113 291.956 178.623 291.315 178.693 289.642 178.793 287.959 178.853 286.287 178.913 272.876 179.414 259.476 179.404 246.066 178.913 244.713 178.873 242.5 178.763 241.158 178.713 240.437 178.743 239.836 179.304 239.696 180.075 239.696 180.075 239.526 180.676 239.526 180.676 238.504 184.301 237.452 187.917 236.311 191.522L236.311 191.522Z" fill="#9CD0E1" transform="matrix(1 0 0 1.00023 423.787 215.835)"/><path d="M252.435 134.005C251.734 133.754 250.993 134.115 250.562 134.686 250.562 134.686 248.499 136.859 248.499 136.859 247.107 138.271 245.725 139.793 244.253 141.125 243.031 142.387 241.208 143.92 240.828 145.552 240.998 147.275 240.888 149.799 240.838 151.091 241.138 154.556 241.348 162.208 241.398 165.763 241.398 165.763 238.264 156.669 238.264 156.669 237.533 154.686 236.741 152.483 235.379 150.88 232.435 147.505 230.632 143.189 230.111 138.762 230.001 134.335 231.483 129.818 234.237 126.343 234.688 125.892 234.628 125.411 234.508 124.45 233.486 118.15 238.003 119.572 240.627 115.697 242.56 113.393 244.403 110.739 247.368 109.627 251.053 109.147 254.378 107.524 258.114 107.003 258.114 107.003 258.715 106.963 258.715 106.963 259.947 107.083 261.129 106.893 262.35 106.563 265.796 105.601 270.242 104.76 273.337 107.113 273.828 107.294 274.769 106.923 275.37 107.204 276.812 107.514 277.824 109.016 279.056 109.187 281.209 109.076 283.272 110.929 285.215 111.36 285.766 111.35 286.477 111.951 286.607 112.472 286.888 113.043 286.848 113.924 287.138 114.294 287.158 114.314 287.138 114.294 287.178 114.304L287.339 114.334C288.39 114.575 289.191 115.416 289.832 116.057 291.064 117.349 292.366 119.102 292.877 120.854 293.408 121.726 294.259 121.485 295.331 122.437 295.731 122.787 296.012 123.348 296.122 123.779 296.713 125.952 296.432 128.476 297.113 130.489 298.245 131.651 299.137 133.344 299.667 134.986 300.929 138.111 298.866 141.286 297.624 144.07 295.651 148.246 293.017 153.144 290.794 157.23 290.804 153.444 290.884 147.255 290.904 143.479 290.874 142.938 290.794 142.638 290.263 142.538 285.566 142.157 280.909 141.736 276.262 140.464 272.366 138.972 268.39 138.571 264.223 138.181 263.172 138.041 262.1 137.88 261.018 137.47 259.937 137.029 259.256 136.398 258.244 135.978 256.431 135.076 254.408 134.595 252.445 134.015L252.445 134.015ZM252.876 132.552C255.81 133.504 258.785 134.736 261.509 136.148 264.414 136.999 267.548 136.709 270.613 137.149 272.706 137.35 274.749 137.981 276.772 138.551 281.169 139.583 285.896 139.863 290.483 140.054 292.116 140.034 293.588 141.806 293.538 143.369 293.538 143.369 293.598 144.971 293.598 144.971L293.838 151.161C293.838 151.161 291.024 150.45 291.024 150.45 293.368 146.454 295.862 142.417 297.664 138.161 298.295 136.068 296.983 133.564 295.751 131.951 295.421 131.651 295.201 131.14 295.11 130.78 294.58 128.606 294.82 126.373 294.379 124.23 294.109 123.258 293.428 123.448 292.346 122.697 291.525 122.207 291.275 121.335 290.994 120.474 290.193 118.791 288.781 116.718 287.108 115.807 286.768 115.767 286.297 115.616 286.037 115.296 285.315 114.425 285.556 113.573 285.135 112.802 283.433 112.452 282.331 111.57 280.849 110.959 280.248 110.679 279.627 110.489 278.976 110.529 277.914 110.449 277.263 109.858 276.672 109.447 275.791 108.826 275.2 108.285 274.178 108.435 273.798 108.486 273.277 108.546 272.726 108.275 269.021 105.481 264.514 107.564 260.427 108.275 259.736 108.375 258.945 108.255 258.244 108.335 254.879 108.786 251.634 110.469 248.199 110.899 245.405 111.66 243.622 114.495 241.809 116.628 241.809 116.628 241.128 117.499 241.128 117.499 240.447 118.471 239.275 119.132 238.334 119.663 237.192 120.354 236.17 120.804 236.07 122.237 235.89 123.889 237.042 126.002 235.62 127.485 233.286 130.579 232.054 134.696 232.224 138.561 232.655 141.927 234.318 145.222 236.281 147.926 236.561 148.336 236.912 148.657 237.242 148.997 239.065 150.91 240.076 153.264 241.098 155.638 241.098 155.638 238.184 156.148 238.184 156.148 238.324 154.426 238.424 152.703 238.524 150.98 238.744 149.318 239.005 147.605 239.055 145.933 238.965 144.35 240.146 143.189 241.098 142.167 243.251 140.054 245.695 138.381 247.588 136.008 249.04 134.485 250.352 131.751 252.896 132.552L252.896 132.552Z" fill="#9CD0E1" transform="matrix(1 0 0 1.00023 423.787 215.835)"/><path d="M199.274 183.029C202.479 173.675 205.774 164.361 208.839 154.967 210.041 151.421 211.002 147.916 212.124 144.33 214.187 138.441 216.941 132.833 219.856 127.344 223.571 120.794 226.966 113.864 232.795 108.766 234.388 107.314 236.761 106.983 238.364 105.681 240.557 103.838 242.901 102.226 245.284 100.684 247.698 99.2014 250.202 97.5489 253.116 96.6976 255.37 96.3771 257.433 96.0666 259.696 95.7461 263.462 95.2854 267.829 95.0551 271.424 96.7977 271.424 96.7977 274.789 98.31 274.789 98.31 281.64 101.435 288.44 104.369 294.72 108.756 295.751 109.477 296.913 110.489 297.694 111.51 300.088 114.525 301.821 117.93 303.533 121.295 306.778 127.735 309.743 135.036 312.627 141.656 313.869 144.511 315.091 147.295 316.723 149.849 318.736 153.735 320.269 157.821 321.851 161.887 325.326 171.151 328.632 180.475 331.706 189.87 328.011 180.696 324.415 171.492 320.499 162.428 318.786 158.502 317.164 154.506 315.071 150.78 313.278 148.176 311.936 145.322 310.644 142.548 307.609 136.048 304.435 128.807 301.17 122.497 299.487 119.302 297.774 116.077 295.511 113.303 294.77 112.392 294.059 111.801 293.037 111.08 287.118 106.993 280.198 103.999 273.578 101.024 273.578 101.024 270.172 99.5119 270.172 99.5119 265.886 97.5789 260.998 98.5604 256.421 99.1914 255.64 99.3216 254.559 99.4217 253.787 99.5319 251.374 100.253 249.11 101.715 246.817 103.107 244.173 104.74 241.729 106.613 239.275 108.456 237.643 109.467 235.81 109.697 234.408 110.879 228.969 115.486 225.394 122.227 221.728 128.366 218.744 133.714 215.819 139.132 213.616 144.841 212.434 148.296 211.272 151.902 209.97 155.337 206.535 164.621 202.98 173.835 199.264 182.999L199.264 182.999Z" fill="#9CD0E1" transform="matrix(1 0 0 1.00023 423.787 215.835)"/><path d="M120.734 148.617C118.851 143.689 117.429 138.802 116.368 133.684 115.787 130.579 114.855 126.884 115.787 123.609 117.419 117.99 119.132 111.931 123.529 107.754 127.935 104.339 132.963 101.245 138.642 100.724 139.363 100.664 140.324 100.594 140.775 100.123 142.317 97.9395 145.552 97.1282 148.086 96.8178 150.68 96.4672 153.254 96.2569 155.868 96.2168 161.106 96.1668 166.524 96.6375 171.331 98.951 178.462 102.356 184.692 108.125 187.797 115.506 190.861 122.938 189.92 131.37 188.227 138.952 187.747 140.855 187.196 142.728 186.545 144.591 186.364 145.342 185.593 146.474 184.281 146.514 183.4 146.514 182.909 146.093 182.388 145.612 181.607 145.011 181.317 143.92 181.146 143.148 180.275 139.573 180.566 135.507 178.993 132.202 178.422 131.771 176.96 132.132 176.139 132.412 175.358 132.693 174.336 132.923 173.445 132.993 173.395 133.023 173.335 133.063 173.304 133.133 172.834 134.435 172.413 135.657 171.482 136.769 169.909 138.652 167.956 137.82 166.875 136.128 165.372 134.025 164.471 131.531 162.979 129.578 161.496 127.915 159.003 126.814 156.839 126.122 156.118 125.922 155.187 125.672 154.516 125.762 153.254 126.373 152.703 127.725 151.401 128.867 148.427 131.561 146.183 126.072 143.799 125.271 143.679 125.271 143.659 125.291 143.569 125.351 143.279 125.692 143.309 126.173 143.068 126.773 142.978 126.994 142.778 127.354 142.367 127.555 141.997 127.745 141.546 127.685 141.446 127.665 140.815 127.605 139.232 127.424 138.592 127.354 138.592 127.354 136.729 127.154 136.729 127.154 136.558 127.144 136.398 127.184 136.258 127.274 134.345 128.867 132.693 131.621 129.918 131.851 127.324 136.568 126.573 143.299 124.049 148.487 123.629 150.369 121.576 150.339 120.754 148.637L120.754 148.637ZM123.539 147.525C123.539 147.525 123.549 147.625 123.468 147.615 123.438 147.625 123.358 147.585 123.228 147.555 123.098 147.515 122.868 147.495 122.697 147.555 122.347 147.705 122.467 147.876 122.567 147.866 122.677 147.876 122.807 147.816 122.908 147.725 123.899 146.213 124.39 144.3 124.981 142.558 124.981 142.558 127.184 135.186 127.184 135.186 127.665 133.804 128.035 132.272 128.987 131 129.147 130.85 129.317 130.599 129.808 130.539 131.911 130.199 133.103 128.176 134.595 126.733 135.126 126.122 135.897 125.522 136.789 125.592 137.76 125.672 139.693 125.842 140.665 125.932 140.665 125.932 141.626 126.012 141.626 126.012 141.836 126.032 141.726 125.992 141.646 126.042 141.526 126.102 141.516 126.173 141.546 126.102 141.706 125.812 141.626 124.831 142.487 124.039 142.918 123.679 143.499 123.498 144.05 123.589 145.883 124.039 146.984 125.752 148.196 126.794 148.637 127.214 149.098 127.625 149.538 127.885 149.839 128.015 149.989 127.815 150.289 127.575 151.341 126.673 152.292 124.67 154.005 124.059 156.549 123.669 158.852 124.851 161.076 125.862 163.56 126.904 165.463 129.387 166.564 131.761 167.385 133.123 168.157 135.076 169.378 135.857 170.32 135.647 170.951 133.724 171.301 132.793 171.512 131.781 172.483 130.91 173.535 130.96 175.358 130.91 177.321 129.968 179.214 130.609 179.514 130.669 180.045 131.02 180.175 131.27 181.026 132.622 181.026 133.864 181.257 135.296 181.257 135.296 181.647 139.132 181.647 139.132 181.898 140.855 181.938 142.948 182.879 144.36 182.979 144.47 183.34 144.641 183.52 144.661 183.75 144.691 183.921 144.601 183.931 144.491 185.904 137.84 187.686 130.509 187.246 123.468 186.985 118.511 184.962 113.914 181.928 110.048 177.331 104.349 170.751 99.8524 163.379 98.7407 157.3 97.8994 150.76 97.9194 144.801 99.4718 143.479 99.9225 143.068 100.343 142.047 101.465 141.175 102.286 139.893 102.456 138.782 102.516 133.574 102.967 128.746 105.832 124.67 108.976 122.066 111.57 120.744 115.186 119.603 118.671 118.962 120.874 118.09 123.639 117.94 125.802 118.291 132.873 121.596 140.665 123.559 147.515L123.559 147.515Z" fill="#9CD0E1" transform="matrix(1 0 0 1.00023 423.787 215.835)"/><path d="M123.599 148.216C123.879 152.112 124.029 156.028 124.24 159.914 124.54 161.547 125.562 163.099 126.834 164.191 128.626 165.783 131.05 166.604 133.454 166.674 133.834 166.664 136.608 166.634 137.059 166.624 137.059 166.624 142.928 166.554 142.928 166.554 148.777 166.504 160.545 166.514 166.394 166.554 169.509 166.554 174.526 166.985 177.361 165.563 180.856 163.96 182.338 160.986 182.619 157.14 183.119 153.334 183.19 149.428 183.34 145.522L184.261 145.502C184.441 147.455 184.562 149.418 184.622 151.381 184.622 155.407 185.092 159.704 183.24 163.459 181.006 167.355 176.569 169.268 172.293 169.399 163.86 169.549 151.391 169.479 142.918 169.399 140.565 169.338 135.657 169.318 133.344 169.238 128.266 168.938 122.938 165.392 122.447 159.964 122.567 156.028 122.617 152.132 122.797 148.216L123.589 148.216Z" fill="#9CD0E1" transform="matrix(1 0 0 1.00023 423.787 215.835)"/><path d="M133.684 168.026 171.732 168.026 171.732 175.227 133.684 175.227Z" stroke="#9CD0E1" stroke-width="3.00459" stroke-miterlimit="10" fill="none" transform="matrix(1 0 0 1.00023 423.787 215.835)"/><path d="M117.64 191.132C118.441 186.344 119.262 181.547 120.264 176.8 120.724 175.428 122.036 174.416 123.519 174.326 125.562 174.226 127.485 174.166 129.478 174.106 145.292 173.615 161.096 173.615 176.91 174.106 178.883 174.166 180.866 174.226 182.839 174.316 184.411 174.236 186.084 175.388 186.374 177 186.885 181.697 187.276 186.404 187.626 191.122 186.685 186.765 185.854 182.398 185.042 178.032 184.952 177.581 184.922 177.251 184.682 176.9 184.221 176.279 183.63 176.079 182.849 176.159 172.974 176.59 163.089 176.71 153.204 176.74 143.349 176.71 133.434 176.579 123.589 176.159 122.827 176.119 122.036 176.61 121.726 177.351 120.384 181.938 119.112 186.565 117.66 191.132L117.66 191.132Z" fill="#9CD0E1" transform="matrix(1 0 0 1.00023 423.787 215.835)"/><path d="M119.943 180.345C116.207 181.317 112.191 181.176 108.676 182.418 107.324 183.17 105.982 184.842 104.89 186.124 103.618 187.626 102.376 189.209 100.964 190.751 101.865 186.615 103.588 182.158 107.304 179.764 111.47 178.052 115.897 178.833 119.943 180.345L119.943 180.345Z" fill="#9CD0E1" transform="matrix(1 0 0 1.00023 423.787 215.835)"/><path d="M186.374 181.006C190.09 179.434 194.737 178.603 198.473 180.696 201.808 183.34 203.21 187.416 203.881 191.442 202.599 189.92 201.457 188.388 200.316 186.915 199.294 185.633 198.112 184.041 196.84 183.19 193.666 181.787 189.86 181.978 186.384 181.016L186.384 181.016Z" fill="#9CD0E1" transform="matrix(1 0 0 1.00023 423.787 215.835)"/><text fill="#99D0E1" font-family="Amatic SC,Amatic SC_MSFontService,sans-serif" font-weight="700" font-size="20" transform="matrix(1.00153 0 0 1.00176 714.12 469)">Caleb </text><text fill="#99D0E1" font-family="Amatic SC,Amatic SC_MSFontService,sans-serif" font-weight="700" font-size="20" transform="matrix(1.00153 0 0 1.00176 756.184 469)">&amp; </text><text fill="#99D0E1" font-family="Amatic SC,Amatic SC_MSFontService,sans-serif" font-weight="700" font-size="20" transform="matrix(1.00153 0 0 1.00176 771.808 469)">Ann</text><text fill="#99D0E1" font-family="Amatic SC,Amatic SC_MSFontService,sans-serif" font-weight="700" font-size="20" transform="matrix(1.00153 0 0 1.00176 804.458 469)">i</text><text fill="#99D0E1" font-family="Amatic SC,Amatic SC_MSFontService,sans-serif" font-weight="700" font-size="20" transform="matrix(1.00153 0 0 1.00176 810.567 469)">e</text><path d="M390.155 232.074 389.635 30.0759 40.2014 30.0759 40.2014 251.424 278.635 252.676" stroke="#C2E9FB" stroke-width="0.500764" fill="none" transform="matrix(1 0 0 1.00023 423.787 215.835)"/></g></svg>