<?xml version="1.0" encoding="UTF-8"?>
<svg id="Harrison" xmlns="http://www.w3.org/2000/svg" xmlns:xlink="http://www.w3.org/1999/xlink" viewBox="0 0 720 720">
  <defs>
    <style>
      .cls-1 {
        fill: #a9a8a9;
      }

      .cls-2 {
        fill: #f7dfcd;
      }

      .cls-3, .cls-4, .cls-5, .cls-6, .cls-7, .cls-8, .cls-9, .cls-10, .cls-11, .cls-12, .cls-13, .cls-14 {
        stroke-miterlimit: 10;
      }

      .cls-3, .cls-6 {
        fill: none;
      }

      .cls-3, .cls-13 {
        stroke: #916e4e;
      }

      .cls-15, .cls-13 {
        fill: #fff2ec;
      }

      .cls-16, .cls-5, .cls-9 {
        fill: #fff;
      }

      .cls-4 {
        fill: #ecaf80;
        stroke: #ba8263;
      }

      .cls-17 {
        clip-path: url(#clippath-1);
      }

      .cls-5 {
        stroke: #c4c4c4;
      }

      .cls-6, .cls-14 {
        stroke: #545554;
      }

      .cls-18 {
        fill: #cb9866;
      }

      .cls-7 {
        fill: #fdcc9a;
        stroke: #fab18d;
      }

      .cls-8 {
        stroke: #4d4d4f;
      }

      .cls-8, .cls-10 {
        fill: #353535;
      }

      .cls-9 {
        stroke: #fde4d9;
      }

      .cls-19, .cls-14 {
        fill: #666766;
      }

      .cls-10 {
        stroke: #444545;
      }

      .cls-11 {
        fill: #8e5f44;
        stroke: #cb9866;
      }

      .cls-12 {
        stroke: #333;
      }

      .cls-20 {
        clip-path: url(#clippath);
      }
    </style>
    <clipPath id="clippath">
      <path class="cls-14" d="M153.64,392.24c-4.64-67.8,29.37-151.65,92.08-155.95,62.71-4.3,124.25,73.96,128.9,141.76,4.64,67.8-40.19,92.79-102.9,97.08-62.71,4.3-113.43-15.09-118.07-82.9Z"/>
    </clipPath>
    <clipPath id="clippath-1">
      <path class="cls-13" d="M354.03,380.03c6.91-64.47,52.8-137.59,112.42-131.2,59.63,6.39,104.43,90.14,97.52,154.6-6.91,64.47-53.18,80.48-112.81,74.1-59.63-6.39-104.05-33.04-97.14-97.5Z"/>
    </clipPath>
  </defs>
  <g>
    <g>
      <path class="cls-19" d="M153.64,392.24c-4.64-67.8,29.37-151.65,92.08-155.95,62.71-4.3,124.25,73.96,128.9,141.76,4.64,67.8-40.19,92.79-102.9,97.08-62.71,4.3-113.43-15.09-118.07-82.9Z"/>
      <g class="cls-20">
        <g>
          <path class="cls-16" d="M204.1,479.76c-7.96-6.03-11.28-27.53-12.38-37.46-.58-5.27-.78-10.69.72-15.77,2.02-6.82,6.93-12.42,12.37-17,14.08-11.86,32.34-18.17,50.71-19.53,18.36-1.36,36.94.77,54.41,6.59,7.68,2.56,15.39,6.99,20.87,12.95,3.45,3.75,5.79,8.39,7.6,13.15,4.77,12.49,6.59,37.15,4.49,50.36"/>
          <path class="cls-1" d="M204.54,479.32c-2.36-1.83-3.91-4.48-5.16-7.14-1.57-3.35-2.68-6.92-3.61-10.5-1.74-6.72-2.87-13.64-3.55-20.54-.53-5.35-.55-10.85,1.32-15.96,1.63-4.44,4.53-8.31,7.83-11.64,6.81-6.88,15.34-12.14,24.24-15.87,18.88-7.91,40.23-8.91,60.31-6.06,5.37.76,10.69,1.84,15.93,3.23s10.05,2.86,14.73,5.15c4.37,2.14,8.5,4.86,12.03,8.23s6.23,7.65,8.21,12.24c3.11,7.22,4.48,15.12,5.36,22.89s1.29,16.39.68,24.54c-.13,1.67-.3,3.34-.56,5-.12.79,1.08,1.13,1.21.33,1.23-7.88,1.06-16.01.48-23.94s-1.66-16.55-4.16-24.4c-1.38-4.32-3.28-8.6-5.86-12.35-2.72-3.96-6.36-7.22-10.32-9.91-8.8-5.98-19.4-8.86-29.72-10.92-10.92-2.18-22.1-3.05-33.22-2.62-10.19.39-20.28,1.98-29.94,5.29s-18.12,7.91-25.75,14.18c-3.68,3.03-7.11,6.45-9.72,10.45-2.75,4.21-4.25,8.93-4.56,13.94-.27,4.38.24,8.77.82,13.1.48,3.57,1.06,7.12,1.78,10.64,1.44,6.95,3.24,14.66,7.49,20.5.82,1.12,1.73,2.16,2.83,3.01.63.49,1.52-.39.88-.88h0Z"/>
        </g>
      </g>
      <path class="cls-6" d="M153.64,392.24c-4.64-67.8,29.37-151.65,92.08-155.95,62.71-4.3,124.25,73.96,128.9,141.76,4.64,67.8-40.19,92.79-102.9,97.08-62.71,4.3-113.43-15.09-118.07-82.9Z"/>
    </g>
    <path class="cls-10" d="M194.65,261.72c7.35,11.04-19.46,30.45-18.47,50.97s.37,64.3-5.14,87.22c-4.06,16.89-29.41,21.36-33.12-2.67s-17.63-75.78,3.08-98.61c20.71-22.83,50.78-41.21,53.64-36.91Z"/>
    <path class="cls-10" d="M306.06,253.1c-6.57,3.61,14.54,15.9,18.88,26.09,4.37,10.27,10.04,25.92,14.92,49.05,4.88,23.13,10.52,65.55,26.5,64.46,15.98-1.09,21.82-6.02,26.64-13.76,4.82-7.74,8.99-61.13-9.68-81.26s-60.4-53.83-77.25-44.57Z"/>
    <circle class="cls-12" cx="213.89" cy="327.95" r="9.4"/>
    <path class="cls-8" d="M272.65,319.15c-5.07-10.43-3.43-49.28,28.98-35.31,36.62,15.78,35.39,56.22,24.83,62.52-9.05,5.4-23.47,2.5-31.46-2.98-7.19-4.93-19.71-18.8-22.35-24.23Z"/>
    <circle class="cls-12" cx="299.84" cy="320.11" r="9.4"/>
    <path class="cls-5" d="M277.42,320.86c-8.77-7.9-22.18-7.8-32.68-2.41-8.58,4.4-16.24,13.4-12.82,26.03,5.06,18.7,28.4,14.02,27.5,14.21-1.13.11,32.56-2.56,27.2-23.84-1.61-6.37-3.27-8.66-9.19-13.99Z"/>
    <path class="cls-8" d="M258.64,323.42s-12.87-.33-8.69,7.52c2.24,4.2,6.11,5.05,8.75,4.79,2.23-.22,4.3-1.24,5.95-2.76,1.37-1.26,2.51-3.23,2.8-4.9.57-3.18-1.54-4.19-3.48-4.47-1.66-.24-5.33-.17-5.33-.17Z"/>
    <path d="M270.13,340.59c-.98,4.86-7.78,6.3-11.17,2.94-.51-.56-.92-1.12-1.18-1.98-.19-1.9-.31-3.81-.47-5.71,0,0,1.99-.14,1.99-.14.1,1.92.26,3.84.31,5.76-.49,3-3.56,4.54-6.28,4.62-2.6.21-5.2-1.51-6.08-3.92,2.25,3.48,7.6,3.62,10.02.38.26-.38.46-.93.48-1.25v.14c-.18-1.87-.3-3.74-.45-5.61l1.99-.14c.08,1.64.3,4.37.29,5.47.61,2.02,2.99,2.82,4.99,2.86,2.34.13,4.46-1.35,5.54-3.44h0Z"/>
  </g>
  <g>
    <g>
      <path class="cls-15" d="M354.03,380.03c6.91-64.47,52.8-137.59,112.42-131.2,59.63,6.39,104.43,90.14,97.52,154.6-6.91,64.47-53.18,80.48-112.81,74.1-59.63-6.39-104.05-33.04-97.14-97.5Z"/>
      <g class="cls-17">
        <g>
          <path class="cls-16" d="M386.88,470.64c-6.47-6.99-6.02-27.74-5.4-37.25.33-5.04,1.04-10.17,3.3-14.7,3.03-6.07,8.58-10.52,14.45-13.92,15.2-8.8,33.41-11.69,50.88-9.92,17.48,1.77,34.57,6.87,50.02,15.23,6.79,3.68,13.29,9.13,17.45,15.64,2.62,4.1,4.04,8.85,4.96,13.62,2.4,12.53.02,36-4.15,48.05"/>
          <path class="cls-2" d="M387.33,470.2c-1.95-2.15-2.96-5.03-3.67-7.8-.9-3.47-1.34-7.04-1.6-10.6-.48-6.62-.39-13.34.16-19.96.41-4.92,1.33-9.91,3.85-14.22,2.3-3.93,5.7-7.12,9.4-9.71,7.72-5.41,16.78-8.94,25.96-10.93,19.02-4.14,39.17-1.4,57.49,4.66,4.79,1.58,9.48,3.44,14.05,5.57,4.3,2.01,8.57,4.18,12.44,6.94s7.31,5.97,10.11,9.73c2.96,3.97,4.78,8.47,5.9,13.27,1.7,7.29,1.65,14.9,1.19,22.33-.49,7.85-1.52,15.75-3.51,23.37-.39,1.49-.82,2.96-1.32,4.41-.26.76.95,1.09,1.21.33,2.48-7.23,3.65-14.95,4.42-22.53s1.17-15.87.09-23.67c-.61-4.41-1.76-8.84-3.67-12.87-2.04-4.28-5.15-8.04-8.61-11.25-7.14-6.62-16.21-10.87-25.19-14.39-9.63-3.78-19.7-6.41-29.94-7.89s-19.65-1.68-29.45-.22-19.07,4.51-27.53,9.38c-3.91,2.25-7.67,4.92-10.71,8.28s-5.27,7.61-6.35,12.19c-.94,3.99-1.19,8.11-1.37,12.2-.15,3.45-.19,6.9-.1,10.35.2,6.84.63,14.43,3.69,20.68.58,1.18,1.29,2.28,2.17,3.26.54.6,1.42-.29.88-.88h0Z"/>
        </g>
      </g>
      <path class="cls-3" d="M354.03,380.03c6.91-64.47,52.8-137.59,112.42-131.2,59.63,6.39,104.43,90.14,97.52,154.6-6.91,64.47-53.18,80.48-112.81,74.1-59.63-6.39-104.05-33.04-97.14-97.5Z"/>
    </g>
    <path class="cls-4" d="M414.25,264.24c5.07,11.59-23.34,25.37-25.82,44.81s-10.34,60.47-19.33,81.08c-6.62,15.19-31.18,15.18-30.67-8.02.52-23.2-3.96-74.12,19.29-92.12,23.25-18,54.55-30.27,56.53-25.76Z"/>
    <path class="cls-4" d="M520.34,274.66c-6.77,2.3,11.02,17.35,13.4,27.65,2.4,10.37,5.13,26.02,5.86,48.56.74,22.54-1.02,63.33,14.18,64.96,15.2,1.63,21.5-2.03,27.32-8.5,5.82-6.47,18.61-55.94,4.41-77.95-14.19-22.01-47.79-60.61-65.17-54.71Z"/>
    <circle class="cls-12" cx="421.31" cy="329.65" r="8.97"/>
    <path class="cls-7" d="M477.98,331.15c-3.03-10.64,4.97-46.86,33.09-28.35,31.78,20.92,23.9,58.7,12.94,62.86-9.4,3.57-22.47-1.56-29.06-8.03-5.93-5.83-15.4-20.94-16.97-26.48Z"/>
    <circle class="cls-12" cx="503.36" cy="336.58" r="8.97"/>
    <path class="cls-9" d="M482.18,333.55c-6.93-8.88-19.54-11.01-30.3-7.69-8.79,2.71-17.48,9.89-16.37,22.32,1.64,18.41,24.35,17.89,23.47,17.92-1.08-.08,31.02,3.01,29.51-17.88-.45-6.25-1.63-8.68-6.31-14.67Z"/>
    <path class="cls-11" d="M464.11,332.84s-12.03-2.45-9.41,5.62c1.4,4.32,4.9,5.76,7.42,5.95,2.13.17,4.25-.45,6.05-1.61,1.5-.96,2.89-2.62,3.45-4.14,1.06-2.89-.75-4.19-2.53-4.78-1.52-.5-4.98-1.05-4.98-1.05Z"/>
    <path class="cls-18" d="M472.05,350.87c-1.71,4.43-8.38,4.66-11.02.93-.39-.61-.69-1.21-.79-2.08.14-1.82.34-3.63.51-5.45,0,0,1.99.21,1.99.21-.21,1.78-.4,3.55-.64,5.33-.83,2.86-4.13,3.86-6.74,3.46-2.49-.24-4.65-2.3-5.06-4.72,1.55,3.62,6.53,4.63,9.33,2,.3-.31.57-.79.65-1.07l-.03.14c.14-1.78.34-3.56.5-5.34,0,0,1.99.21,1.99.21-.2,1.54-.45,4.19-.64,5.18.23,1.98,2.32,3.11,4.17,3.49,2.17.52,4.41-.51,5.77-2.28h0Z"/>
  </g>
</svg>