<svg width="688" height="150" xmlns="http://www.w3.org/2000/svg" xmlns:xlink="http://www.w3.org/1999/xlink" xml:space="preserve" overflow="hidden"><g transform="translate(-1856 -1246)"><rect x="1869.5" y="1275.5" width="663" height="88" stroke="#9CD0E0" stroke-width="6.875" stroke-miterlimit="8" fill="none"/><path d="M1895.4 1249.5 1932.6 1249.5C1936.96 1249.5 1940.5 1253.04 1940.5 1257.4L1940.5 1275.5 1887.5 1275.5 1887.5 1257.4C1887.5 1253.04 1891.04 1249.5 1895.4 1249.5Z" stroke="#9CD0E0" stroke-width="6.875" stroke-miterlimit="8" fill="none" fill-rule="evenodd"/><path d="M1975.09 1249.5 2012.91 1249.5C2017.1 1249.5 2020.5 1252.9 2020.5 1257.09L2020.5 1274.5 1967.5 1274.5 1967.5 1257.09C1967.5 1252.9 1970.9 1249.5 1975.09 1249.5Z" stroke="#9CD0E0" stroke-width="6.875" stroke-miterlimit="8" fill="none" fill-rule="evenodd"/><path d="M2055.09 1249.5 2092.91 1249.5C2097.1 1249.5 2100.5 1252.9 2100.5 1257.09L2100.5 1274.5 2047.5 1274.5 2047.5 1257.09C2047.5 1252.9 2050.9 1249.5 2055.09 1249.5Z" stroke="#9CD0E0" stroke-width="6.875" stroke-miterlimit="8" fill="none" fill-rule="evenodd"/><path d="M2139.09 1249.5 2177.91 1249.5C2182.1 1249.5 2185.5 1252.9 2185.5 1257.09L2185.5 1274.5 2131.5 1274.5 2131.5 1257.09C2131.5 1252.9 2134.9 1249.5 2139.09 1249.5Z" stroke="#9CD0E0" stroke-width="6.875" stroke-miterlimit="8" fill="none" fill-rule="evenodd"/><path d="M2223.09 1249.5 2261.91 1249.5C2266.1 1249.5 2269.5 1252.9 2269.5 1257.09L2269.5 1274.5 2215.5 1274.5 2215.5 1257.09C2215.5 1252.9 2218.9 1249.5 2223.09 1249.5Z" stroke="#9CD0E0" stroke-width="6.875" stroke-miterlimit="8" fill="none" fill-rule="evenodd"/><path d="M2306.09 1249.5 2343.91 1249.5C2348.1 1249.5 2351.5 1252.9 2351.5 1257.09L2351.5 1274.5 2298.5 1274.5 2298.5 1257.09C2298.5 1252.9 2301.9 1249.5 2306.09 1249.5Z" stroke="#9CD0E0" stroke-width="6.875" stroke-miterlimit="8" fill="none" fill-rule="evenodd"/><path d="M2387.09 1249.5 2424.91 1249.5C2429.1 1249.5 2432.5 1252.9 2432.5 1257.09L2432.5 1274.5 2379.5 1274.5 2379.5 1257.09C2379.5 1252.9 2382.9 1249.5 2387.09 1249.5Z" stroke="#9CD0E0" stroke-width="6.875" stroke-miterlimit="8" fill="none" fill-rule="evenodd"/><path d="M2468.09 1249.5 2505.91 1249.5C2510.1 1249.5 2513.5 1252.9 2513.5 1257.09L2513.5 1274.5 2460.5 1274.5 2460.5 1257.09C2460.5 1252.9 2463.9 1249.5 2468.09 1249.5Z" stroke="#9CD0E0" stroke-width="6.875" stroke-miterlimit="8" fill="none" fill-rule="evenodd"/><text fill="#A4A5A8" font-family="Amatic SC,Amatic SC_MSFontService,sans-serif" font-weight="700" font-size="64" transform="matrix(1 0 0 1 1939.32 1342)">Building a New Life Together</text></g></svg>