<svg width="668" height="119" xmlns="http://www.w3.org/2000/svg" xmlns:xlink="http://www.w3.org/1999/xlink" xml:space="preserve" overflow="hidden"><g transform="translate(-1201 -976)"><path d="M1275.97 1005 1223 1005 1223 983.198C1223 980.337 1224.94 978 1227.36 978L1271.64 978C1274.03 978 1276 980.337 1276 983.198L1276 1005Z" stroke="#9CD0E0" stroke-width="3.95322" stroke-miterlimit="8" fill="none" fill-rule="evenodd"/><path d="M1354 1005 1301 1005 1301 983.198C1301 980.337 1303.25 978 1306.02 978L1348.95 978C1351.72 978 1353.97 980.337 1353.97 983.198L1353.97 1005Z" stroke="#9CD0E0" stroke-width="3.95322" stroke-miterlimit="8" fill="none" fill-rule="evenodd"/><path d="M1436 1005 1384 1005 1384 985.291C1384 981.279 1387.09 978 1390.92 978L1429.08 978C1432.91 978 1436 981.244 1436 985.291L1436 1005Z" stroke="#9CD0E0" stroke-width="3.95322" stroke-miterlimit="8" fill="none" fill-rule="evenodd"/><path d="M1603 1005 1550 1005 1550 985.291C1550 981.279 1553.15 978 1557.06 978L1595.94 978C1599.85 978 1603 981.244 1603 985.291L1603 1005Z" stroke="#9CD0E0" stroke-width="3.95322" stroke-miterlimit="8" fill="none" fill-rule="evenodd"/><path d="M1681 1005 1629 1005 1629 985.291C1629 981.279 1632.09 978 1635.92 978L1674.08 978C1677.91 978 1681 981.244 1681 985.291L1681 1005Z" stroke="#9CD0E0" stroke-width="3.95322" stroke-miterlimit="8" fill="none" fill-rule="evenodd"/><path d="M1766 1005 1713 1005 1713 985.291C1713 981.279 1716.15 978 1720.06 978L1758.94 978C1762.85 978 1766 981.244 1766 985.291L1766 1005Z" stroke="#9CD0E0" stroke-width="3.95322" stroke-miterlimit="8" fill="none" fill-rule="evenodd"/><path d="M1847 1005 1794 1005 1794 985.291C1794 981.279 1797.15 978 1801.06 978L1839.94 978C1843.85 978 1847 981.244 1847 985.291L1847 1005Z" stroke="#9CD0E0" stroke-width="3.95322" stroke-miterlimit="8" fill="none" fill-rule="evenodd"/><path d="M1520 1005 1467 1005 1467 985.291C1467 981.279 1470.15 978 1474.06 978L1512.94 978C1516.85 978 1520 981.244 1520 985.291L1520 1005Z" stroke="#9CD0E0" stroke-width="3.95322" stroke-miterlimit="8" fill="none" fill-rule="evenodd"/><path d="M1203 1004 1867 1004 1867 1093 1203 1093Z" stroke="#9CD0E0" stroke-width="3.95322" stroke-miterlimit="8" fill="none" fill-rule="evenodd"/></g></svg>